<?xml version="1.0" encoding="utf-8"?>
<!-- Generator: Adobe Illustrator 23.0.5, SVG Export Plug-In . SVG Version: 6.00 Build 0)  -->
<svg version="1.1" id="Capa_1" xmlns="http://www.w3.org/2000/svg" xmlns:xlink="http://www.w3.org/1999/xlink" x="0px" y="0px"
	 viewBox="0 0 512 512" style="enable-background:new 0 0 512 512;" xml:space="preserve">
<style type="text/css">
	.st0{fill:#FBE6FC;}
	.st1{fill:#E7D9ED;}
	.st2{fill:#A591AF;}
	.st3{fill:#9EC8FC;}
	.st4{fill:#62A4FB;}
	.st5{fill:#B9A1D3;}
	.st6{fill:#9573BB;}
	.st7{fill:#FAF063;}
</style>
<g>
	<path class="st0" d="M459.3,164.6v301.7c0,25.2-20.5,45.7-45.8,45.7H98.5c-25.3,0-45.8-20.5-45.8-45.7V45.7
		C52.7,20.5,73.2,0,98.5,0h196c5.5,0,10.9,1.3,15.7,3.8c3.1,1.6,144.2,142.9,145.9,146.7C458.2,154.9,459.3,159.7,459.3,164.6
		L459.3,164.6z"/>
	<path class="st1" d="M459.3,164.6v16.7H339.8c-34.1,0-61.9-27.8-61.9-61.9V0h16.7c4.6,0,9,0.9,13.2,2.6
		c4.1,1.7,146.9,144.3,148.6,148.2C458.3,155.1,459.3,159.8,459.3,164.6z"/>
	<path class="st1" d="M129.4,512H98.5c-25.3,0-45.8-20.5-45.8-45.7V45.7C52.7,20.5,73.2,0,98.5,0h30.9c-25.3,0-45.8,20.5-45.8,45.7
		v420.6C83.6,491.5,104.2,512,129.4,512z"/>
	<path class="st2" d="M456.2,150.4H339.8c-17.1,0-31-13.9-31-31V3.1c3.7,1.7,7.1,4,10.1,7l130.3,130.3
		C452.2,143.3,454.5,146.7,456.2,150.4z"/>
	<path class="st3" d="M366.2,459.6H145.8c-22.8,0-41.2-18.4-41.2-41.2V259.5c0-22.8,18.4-41.2,41.2-41.2h220.5
		c22.8,0,41.2,18.4,41.2,41.2v158.9C407.4,441.2,389,459.6,366.2,459.6L366.2,459.6z"/>
	<path class="st4" d="M130.3,418.4c0,22.8,18.5,41.2,41.2,41.2h-25.8c-22.8,0-41.2-18.5-41.2-41.2v-159c0-22.8,18.5-41.2,41.2-41.2
		h25.8c-22.8,0-41.2,18.5-41.2,41.2V418.4z"/>
	<path class="st3" d="M380.4,457.1c0.9-0.3,1.9-0.7,2.8-1.1C382.2,456.4,381.3,456.8,380.4,457.1z"/>
	<path class="st5" d="M407.3,422.3c-2,20.9-19.6,37.3-41,37.3H145.8c-22.8,0-41.2-18.5-41.2-41.2v-1l62.5-70.8
		c6.6-4.9,15.6-4.8,22,0.3l27.9,22.2c8.6,6.8,21.1,5.7,28.3-2.5l51.5-58.7c7.6-8.7,21.2-8.1,28.1,1.1L407.3,422.3z"/>
	<path class="st6" d="M171.5,459.6h-25.8c-22.8,0-41.2-18.5-41.2-41.2v-1l25.8-29.2v30.2C130.3,441.2,148.8,459.6,171.5,459.6z"/>
	<path class="st5" d="M380.4,457.1c0.9-0.3,1.9-0.7,2.8-1.1C382.2,456.4,381.3,456.8,380.4,457.1z"/>
	<circle class="st7" cx="218.5" cy="286.9" r="22.2"/>
</g>
</svg>
